<?xml version="1.0" encoding="UTF-8"?>
<!DOCTYPE svg PUBLIC "-//W3C//DTD SVG 1.1//EN" "http://www.w3.org/Graphics/SVG/1.1/DTD/svg11.dtd">
<svg xmlns="http://www.w3.org/2000/svg" version="1.1" width="221px" height="137px" style="shape-rendering:geometricPrecision; text-rendering:geometricPrecision; image-rendering:optimizeQuality; fill-rule:evenodd; clip-rule:evenodd" xmlns:xlink="http://www.w3.org/1999/xlink">
<g><path style="opacity:1" fill="#fdfcfc" d="M -0.5,-0.5 C 73.1667,-0.5 146.833,-0.5 220.5,-0.5C 220.5,45.1667 220.5,90.8333 220.5,136.5C 146.833,136.5 73.1667,136.5 -0.5,136.5C -0.5,90.8333 -0.5,45.1667 -0.5,-0.5 Z"/></g>
<g><path style="opacity:1" fill="#060606" d="M 110.5,3.5 C 110.5,4.83333 110.5,6.16667 110.5,7.5C 112.415,7.78448 114.081,7.45115 115.5,6.5C 120.172,5.99728 124.839,5.83061 129.5,6C 132.5,8.33333 135.5,10.6667 138.5,13C 121.771,14.5096 105.437,17.8429 89.5,23C 93.4695,22.6743 97.4695,22.6743 101.5,23C 75.2133,31.1419 51.2133,43.4752 29.5,60C 21.7537,67.0015 15.587,75.1681 11,84.5C 10.6667,88.8333 10.3333,93.1667 10,97.5C 5.45422,84.0439 7.12088,71.3772 15,59.5C 25.9474,42.0967 40.1141,27.9301 57.5,17C 51.514,17.2399 45.514,17.2399 39.5,17C 37.9632,15.8904 37.2965,14.3904 37.5,12.5C 61.9524,10.5308 86.2857,7.53077 110.5,3.5 Z"/></g>
<g><path style="opacity:1" fill="#686868" d="M 110.5,3.5 C 111.404,4.20895 111.737,5.20895 111.5,6.5C 112.833,6.5 114.167,6.5 115.5,6.5C 114.081,7.45115 112.415,7.78448 110.5,7.5C 110.5,6.16667 110.5,4.83333 110.5,3.5 Z"/></g>
<g><path style="opacity:1" fill="#383838" d="M 140.5,58.5 C 138.155,65.0495 136.488,71.8828 135.5,79C 136.057,82.9479 137.057,86.7813 138.5,90.5C 137.962,96.2658 134.962,98.2658 129.5,96.5C 128.672,91.8685 128.172,87.2018 128,82.5C 126.926,81.3816 125.76,80.3816 124.5,79.5C 125.991,78.7564 127.491,78.0897 129,77.5C 133.388,67.8933 137.888,58.3933 142.5,49C 146.486,48.5012 150.486,48.3345 154.5,48.5C 154.5,45.8333 154.5,43.1667 154.5,40.5C 158.226,40.1774 161.893,40.5108 165.5,41.5C 163.827,43.5225 163.16,45.8559 163.5,48.5C 165.199,48.6602 166.866,48.4935 168.5,48C 169.304,46.2287 170.471,44.7287 172,43.5C 174.303,45.393 176.47,47.393 178.5,49.5C 173.544,50.4941 168.544,50.8275 163.5,50.5C 163.5,53.1667 163.5,55.8333 163.5,58.5C 165.924,58.8076 168.257,58.4742 170.5,57.5C 171.5,55.8333 172.833,54.5 174.5,53.5C 176.833,55.1667 178.833,57.1667 180.5,59.5C 176.541,60.3265 172.541,60.8265 168.5,61C 172.637,61.6513 176.137,63.4847 179,66.5C 180.5,71.6667 178.667,73.5 173.5,72C 170.687,68.0195 167.353,64.5195 163.5,61.5C 159.541,60.3401 155.541,60.1735 151.5,61C 153.5,61.6667 155.5,62.3333 157.5,63C 156.016,64.5737 154.349,65.907 152.5,67C 155.257,67.8779 157.924,68.8779 160.5,70C 158.884,70.6152 157.551,71.6152 156.5,73C 161.324,74.4065 165.324,73.2398 168.5,69.5C 170.833,71.5 173.167,73.5 175.5,75.5C 172.295,79.3864 168.961,83.2197 165.5,87C 170.678,88.798 176.011,89.798 181.5,90C 178.137,91.899 176.137,94.7324 175.5,98.5C 169.39,97.6292 163.89,95.2959 159,91.5C 151.666,95.6242 143.832,97.7909 135.5,98C 143.003,96.0905 149.337,92.4238 154.5,87C 153.365,84.5588 151.865,82.3921 150,80.5C 147.204,82.9835 144.037,84.4835 140.5,85C 144.827,80.5014 147.661,75.3347 149,69.5C 145.715,72.0565 142.215,73.8898 138.5,75C 142.57,70.8616 145.903,66.1949 148.5,61C 145.325,61.0533 142.658,60.22 140.5,58.5 Z"/></g>
<g><path style="opacity:1" fill="#373737" d="M 106.5,41.5 C 109.792,43.4581 112.792,45.7915 115.5,48.5C 108.532,49.497 101.532,49.8303 94.5,49.5C 94.3135,54.8446 93.9801,60.1779 93.5,65.5C 97.8839,65.8256 102.217,65.4922 106.5,64.5C 107.833,62.8333 109.167,61.1667 110.5,59.5C 113.582,61.3719 116.249,63.7052 118.5,66.5C 110.167,67.1667 101.833,67.8333 93.5,68.5C 98.789,79.658 107.456,86.8247 119.5,90C 115.29,91.3765 112.624,94.2099 111.5,98.5C 101.18,91.9949 95.0128,82.6616 93,70.5C 88.8136,86.3553 78.6469,95.522 62.5,98C 75.0272,91.9813 82.3605,82.148 84.5,68.5C 57.8664,66.8385 57.8664,65.8385 84.5,65.5C 84.5,60.1667 84.5,54.8333 84.5,49.5C 78.7945,49.8288 73.1278,49.4954 67.5,48.5C 79.1524,47.6675 90.8191,47.1675 102.5,47C 104.439,45.5679 105.772,43.7346 106.5,41.5 Z"/></g>
<g><path style="opacity:1" fill="#3a3a3a" d="M 125.5,44.5 C 130.379,43.3053 134.212,44.972 137,49.5C 138.143,54.8592 135.976,57.0259 130.5,56C 129.497,51.8046 127.83,47.9712 125.5,44.5 Z"/></g>
<g><path style="opacity:1" fill="#fdfdfd" d="M 140.5,58.5 C 140.756,56.0628 141.423,53.7294 142.5,51.5C 146.445,50.5091 150.445,50.1758 154.5,50.5C 154.5,53.1667 154.5,55.8333 154.5,58.5C 149.833,58.5 145.167,58.5 140.5,58.5 Z"/></g>
<g><path style="opacity:1" fill="#ff120a" d="M 94.5,119.5 C 95.7054,120.686 97.0387,120.686 98.5,119.5C 99.9217,119.709 101.255,120.209 102.5,121C 101.552,121.483 100.552,121.649 99.5,121.5C 99.5,122.5 99.5,123.5 99.5,124.5C 109.964,123.945 120.297,124.778 130.5,127C 107.186,129.563 83.8526,129.896 60.5,128C 47.9223,126.031 36.2556,121.697 25.5,115C 14.6107,105.608 11.4441,94.1082 16,80.5C 26.1526,65.998 38.986,54.8314 54.5,47C 44.6667,54.1667 36.1667,62.6667 29,72.5C 22.9233,84.2682 25.4233,93.7682 36.5,101C 53.1542,108.141 70.4875,110.808 88.5,109C 85.9109,110.197 83.2442,111.197 80.5,112C 82.7543,113.256 85.0877,114.423 87.5,115.5C 88.5896,116.391 88.5896,117.391 87.5,118.5C 89.7427,119.474 92.076,119.808 94.5,119.5 Z"/></g>
<g><path style="opacity:1" fill="#f4f4f4" d="M 153.5,75.5 C 156.85,75.335 160.183,75.5017 163.5,76C 162.268,78.975 160.434,81.475 158,83.5C 153.585,82.3289 152.085,79.6623 153.5,75.5 Z"/></g>
<g><path style="opacity:1" fill="#323332" d="M 98.5,119.5 C 97.0387,120.686 95.7054,120.686 94.5,119.5C 94.5,117.167 94.5,114.833 94.5,112.5C 93.0222,112.762 91.6888,112.429 90.5,111.5C 90.6667,111.167 90.8333,110.833 91,110.5C 94.6667,109.167 98.3333,109.167 102,110.5C 102.167,110.833 102.333,111.167 102.5,111.5C 101.311,112.429 99.9778,112.762 98.5,112.5C 98.5,114.833 98.5,117.167 98.5,119.5 Z"/></g>
<g><path style="opacity:1" fill="#323332" d="M 103.5,109.5 C 104.822,109.33 105.989,109.663 107,110.5C 107.498,113.817 107.665,117.15 107.5,120.5C 106.178,120.67 105.011,120.337 104,119.5C 103.502,116.183 103.335,112.85 103.5,109.5 Z"/></g>
<g><path style="opacity:1" fill="#323332" d="M 116.5,109.5 C 118.167,109.5 119.833,109.5 121.5,109.5C 121.5,113.167 121.5,116.833 121.5,120.5C 117.471,119.444 113.471,119.444 109.5,120.5C 109.167,120 108.833,119.5 108.5,119C 110.988,115.679 113.655,112.512 116.5,109.5 Z"/></g>
<g><path style="opacity:1" fill="#323332" d="M 122.5,109.5 C 125.959,110.436 128.793,112.436 131,115.5C 130.805,113.874 130.805,112.207 131,110.5C 132.011,109.663 133.178,109.33 134.5,109.5C 136.473,121.423 133.639,123.09 126,114.5C 126.135,116.425 126.302,118.425 126.5,120.5C 125.178,120.67 124.011,120.337 123,119.5C 122.502,116.183 122.335,112.85 122.5,109.5 Z"/></g>
<g><path style="opacity:1" fill="#eb1308" d="M 150.5,109.5 C 151.833,109.5 153.167,109.5 154.5,109.5C 154.5,113.167 154.5,116.833 154.5,120.5C 153.167,120.5 151.833,120.5 150.5,120.5C 150.5,116.833 150.5,113.167 150.5,109.5 Z"/></g>
<g><path style="opacity:1" fill="#ed2a1a" d="M 155.5,109.5 C 158.785,109.269 161.285,110.603 163,113.5C 163.49,112.207 163.657,110.873 163.5,109.5C 164.833,109.5 166.167,109.5 167.5,109.5C 167.5,113.167 167.5,116.833 167.5,120.5C 164.215,120.731 161.715,119.397 160,116.5C 159.51,117.793 159.343,119.127 159.5,120.5C 158.167,120.5 156.833,120.5 155.5,120.5C 155.5,116.833 155.5,113.167 155.5,109.5 Z"/></g>
<g><path style="opacity:1" fill="#ec1b0e" d="M 168.5,109.5 C 172.5,109.5 176.5,109.5 180.5,109.5C 180.5,110.833 180.5,112.167 180.5,113.5C 177.833,113.167 175.167,112.833 172.5,112.5C 172.5,114.167 172.5,115.833 172.5,117.5C 174.485,116.076 177.152,115.076 180.5,114.5C 180.5,116.5 180.5,118.5 180.5,120.5C 176.5,120.5 172.5,120.5 168.5,120.5C 168.5,116.833 168.5,113.167 168.5,109.5 Z"/></g>
<g><path style="opacity:1" fill="#d0d0d0" d="M 117.5,112.5 C 118.096,113.935 118.096,115.602 117.5,117.5C 116.127,117.657 114.793,117.49 113.5,117C 115.041,115.629 116.375,114.129 117.5,112.5 Z"/></g>
<g><path style="opacity:1" fill="#ed2819" d="M 136.5,109.5 C 137.833,109.5 139.167,109.5 140.5,109.5C 140.5,112.167 140.5,114.833 140.5,117.5C 143.167,117.167 145.833,116.833 148.5,116.5C 148.5,117.833 148.5,119.167 148.5,120.5C 144.5,120.5 140.5,120.5 136.5,120.5C 136.5,116.833 136.5,113.167 136.5,109.5 Z"/></g>
</svg>
